<mxfile host="app.diagrams.net" modified="2023-11-14T21:17:38.652Z" agent="Mozilla/5.0 (Windows NT 10.0; Win64; x64) AppleWebKit/537.36 (KHTML, like Gecko) Chrome/119.0.0.0 Safari/537.36" etag="Tyw_E29QdeWe3IfvDw0F" version="22.1.0" type="device">
  <diagram name="Page-1" id="NsOP_gZv76fhQyXBDaJQ">
    <mxGraphModel dx="2284" dy="1882" grid="1" gridSize="10" guides="1" tooltips="1" connect="1" arrows="1" fold="1" page="1" pageScale="1" pageWidth="850" pageHeight="1100" math="0" shadow="0">
      <root>
        <mxCell id="0" />
        <mxCell id="1" parent="0" />
        <mxCell id="rzqhY-2N-wOMWiYD81K0-1" value="&lt;font style=&quot;font-size: 16px;&quot;&gt;Course&lt;/font&gt;" style="rounded=0;whiteSpace=wrap;html=1;fillColor=#dae8fc;strokeColor=#6c8ebf;" parent="1" vertex="1">
          <mxGeometry x="350" y="300" width="120" height="60" as="geometry" />
        </mxCell>
        <mxCell id="rzqhY-2N-wOMWiYD81K0-2" value="&lt;font style=&quot;font-size: 16px;&quot;&gt;User&lt;/font&gt;" style="rounded=0;whiteSpace=wrap;html=1;fillColor=#dae8fc;strokeColor=#6c8ebf;" parent="1" vertex="1">
          <mxGeometry x="120" y="300" width="120" height="60" as="geometry" />
        </mxCell>
        <mxCell id="rzqhY-2N-wOMWiYD81K0-3" value="&lt;span style=&quot;font-size: 16px;&quot;&gt;Instructor&lt;/span&gt;" style="rounded=0;whiteSpace=wrap;html=1;fillColor=#dae8fc;strokeColor=#6c8ebf;" parent="1" vertex="1">
          <mxGeometry x="590" y="300" width="120" height="60" as="geometry" />
        </mxCell>
        <mxCell id="rzqhY-2N-wOMWiYD81K0-4" value="&lt;font style=&quot;font-size: 16px;&quot;&gt;Title&lt;/font&gt;" style="rounded=0;whiteSpace=wrap;html=1;fillColor=#f8cecc;strokeColor=#b85450;" parent="1" vertex="1">
          <mxGeometry x="610" y="590" width="120" height="60" as="geometry" />
        </mxCell>
        <mxCell id="rzqhY-2N-wOMWiYD81K0-5" value="&lt;font style=&quot;font-size: 16px;&quot;&gt;Fees&lt;/font&gt;" style="rounded=0;whiteSpace=wrap;html=1;fillColor=#f8cecc;strokeColor=#b85450;" parent="1" vertex="1">
          <mxGeometry x="110" y="590" width="120" height="60" as="geometry" />
        </mxCell>
        <mxCell id="rzqhY-2N-wOMWiYD81K0-6" value="&lt;font style=&quot;font-size: 16px;&quot;&gt;Category&lt;/font&gt;" style="rounded=0;whiteSpace=wrap;html=1;fillColor=#f8cecc;strokeColor=#b85450;" parent="1" vertex="1">
          <mxGeometry x="250" y="590" width="120" height="60" as="geometry" />
        </mxCell>
        <mxCell id="rzqhY-2N-wOMWiYD81K0-7" value="&lt;font style=&quot;font-size: 16px;&quot;&gt;Sub Category&lt;/font&gt;" style="rounded=0;whiteSpace=wrap;html=1;fillColor=#f8cecc;strokeColor=#b85450;" parent="1" vertex="1">
          <mxGeometry x="250" y="690" width="120" height="60" as="geometry" />
        </mxCell>
        <mxCell id="rzqhY-2N-wOMWiYD81K0-8" value="&lt;font style=&quot;font-size: 16px;&quot;&gt;Description&lt;/font&gt;" style="rounded=0;whiteSpace=wrap;html=1;fillColor=#f8cecc;strokeColor=#b85450;" parent="1" vertex="1">
          <mxGeometry x="380" y="910" width="120" height="60" as="geometry" />
        </mxCell>
        <mxCell id="rzqhY-2N-wOMWiYD81K0-9" value="&lt;font style=&quot;font-size: 16px;&quot;&gt;Creation Time&lt;/font&gt;" style="rounded=0;whiteSpace=wrap;html=1;fillColor=#f8cecc;strokeColor=#b85450;" parent="1" vertex="1">
          <mxGeometry x="530" y="690" width="120" height="60" as="geometry" />
        </mxCell>
        <mxCell id="rzqhY-2N-wOMWiYD81K0-10" value="&lt;font style=&quot;font-size: 16px;&quot;&gt;Number of Modules&lt;/font&gt;" style="rounded=0;whiteSpace=wrap;html=1;fillColor=#f8cecc;strokeColor=#b85450;" parent="1" vertex="1">
          <mxGeometry x="490" y="820" width="120" height="60" as="geometry" />
        </mxCell>
        <mxCell id="rzqhY-2N-wOMWiYD81K0-11" value="&lt;font style=&quot;font-size: 16px;&quot;&gt;Thumbnail&lt;/font&gt;" style="rounded=0;whiteSpace=wrap;html=1;fillColor=#f8cecc;strokeColor=#b85450;" parent="1" vertex="1">
          <mxGeometry x="170" y="800" width="120" height="60" as="geometry" />
        </mxCell>
        <mxCell id="rzqhY-2N-wOMWiYD81K0-12" value="&lt;span style=&quot;font-size: 16px;&quot;&gt;User name&lt;/span&gt;" style="rounded=0;whiteSpace=wrap;html=1;fillColor=#f8cecc;strokeColor=#b85450;" parent="1" vertex="1">
          <mxGeometry x="80" y="60" width="120" height="60" as="geometry" />
        </mxCell>
        <mxCell id="rzqhY-2N-wOMWiYD81K0-13" value="&lt;font style=&quot;font-size: 16px;&quot;&gt;Emailid&lt;/font&gt;" style="rounded=0;whiteSpace=wrap;html=1;fillColor=#f8cecc;strokeColor=#b85450;" parent="1" vertex="1">
          <mxGeometry x="-120" y="30" width="120" height="60" as="geometry" />
        </mxCell>
        <mxCell id="rzqhY-2N-wOMWiYD81K0-14" value="&lt;font style=&quot;font-size: 16px;&quot;&gt;Contact Number&lt;/font&gt;" style="rounded=0;whiteSpace=wrap;html=1;fillColor=#f8cecc;strokeColor=#b85450;" parent="1" vertex="1">
          <mxGeometry x="-140" y="210" width="140" height="60" as="geometry" />
        </mxCell>
        <mxCell id="rzqhY-2N-wOMWiYD81K0-15" value="&lt;font style=&quot;font-size: 16px;&quot;&gt;Access Token&lt;/font&gt;" style="rounded=0;whiteSpace=wrap;html=1;fillColor=#f8cecc;strokeColor=#b85450;" parent="1" vertex="1">
          <mxGeometry x="185" y="170" width="120" height="60" as="geometry" />
        </mxCell>
        <mxCell id="rzqhY-2N-wOMWiYD81K0-16" value="&lt;span style=&quot;font-size: 16px;&quot;&gt;Profile Picture&lt;/span&gt;" style="rounded=0;whiteSpace=wrap;html=1;fillColor=#f8cecc;strokeColor=#b85450;" parent="1" vertex="1">
          <mxGeometry x="-130" y="130" width="120" height="60" as="geometry" />
        </mxCell>
        <mxCell id="rzqhY-2N-wOMWiYD81K0-17" value="&lt;span style=&quot;font-size: 16px;&quot;&gt;Instructor Name&lt;/span&gt;" style="rounded=0;whiteSpace=wrap;html=1;fillColor=#f8cecc;strokeColor=#b85450;" parent="1" vertex="1">
          <mxGeometry x="640" y="60" width="150" height="60" as="geometry" />
        </mxCell>
        <mxCell id="rzqhY-2N-wOMWiYD81K0-18" value="&lt;font style=&quot;font-size: 16px;&quot;&gt;Emailid&lt;/font&gt;" style="rounded=0;whiteSpace=wrap;html=1;fillColor=#f8cecc;strokeColor=#b85450;" parent="1" vertex="1">
          <mxGeometry x="860" y="30" width="120" height="60" as="geometry" />
        </mxCell>
        <mxCell id="rzqhY-2N-wOMWiYD81K0-19" value="&lt;font style=&quot;font-size: 16px;&quot;&gt;Contact Number&lt;/font&gt;" style="rounded=0;whiteSpace=wrap;html=1;fillColor=#f8cecc;strokeColor=#b85450;" parent="1" vertex="1">
          <mxGeometry x="870" y="210" width="140" height="60" as="geometry" />
        </mxCell>
        <mxCell id="rzqhY-2N-wOMWiYD81K0-20" value="&lt;font style=&quot;font-size: 16px;&quot;&gt;Access Token&lt;/font&gt;" style="rounded=0;whiteSpace=wrap;html=1;fillColor=#f8cecc;strokeColor=#b85450;" parent="1" vertex="1">
          <mxGeometry x="530" y="170" width="120" height="60" as="geometry" />
        </mxCell>
        <mxCell id="rzqhY-2N-wOMWiYD81K0-21" value="&lt;span style=&quot;font-size: 16px;&quot;&gt;Profile Picture&lt;/span&gt;" style="rounded=0;whiteSpace=wrap;html=1;fillColor=#f8cecc;strokeColor=#b85450;" parent="1" vertex="1">
          <mxGeometry x="880" y="130" width="120" height="60" as="geometry" />
        </mxCell>
        <mxCell id="rzqhY-2N-wOMWiYD81K0-22" value="&lt;font style=&quot;font-size: 16px;&quot;&gt;University&lt;/font&gt;" style="rounded=0;whiteSpace=wrap;html=1;fillColor=#f8cecc;strokeColor=#b85450;" parent="1" vertex="1">
          <mxGeometry x="750" y="-60" width="140" height="60" as="geometry" />
        </mxCell>
        <mxCell id="rzqhY-2N-wOMWiYD81K0-23" value="" style="endArrow=diamondThin;endFill=1;endSize=24;html=1;rounded=0;entryX=0.967;entryY=1.1;entryDx=0;entryDy=0;entryPerimeter=0;exitX=0.019;exitY=0.733;exitDx=0;exitDy=0;exitPerimeter=0;" parent="1" source="rzqhY-2N-wOMWiYD81K0-25" edge="1">
          <mxGeometry width="160" relative="1" as="geometry">
            <mxPoint x="470" y="319.9955304172952" as="sourcePoint" />
            <mxPoint x="589.0099999999998" y="321.99" as="targetPoint" />
          </mxGeometry>
        </mxCell>
        <mxCell id="rzqhY-2N-wOMWiYD81K0-24" value="1" style="text;html=1;align=center;verticalAlign=middle;resizable=0;points=[];autosize=1;strokeColor=none;fillColor=none;" parent="1" vertex="1">
          <mxGeometry x="560" y="290" width="30" height="30" as="geometry" />
        </mxCell>
        <mxCell id="rzqhY-2N-wOMWiYD81K0-25" value="0..*" style="text;html=1;align=center;verticalAlign=middle;resizable=0;points=[];autosize=1;strokeColor=none;fillColor=none;" parent="1" vertex="1">
          <mxGeometry x="470" y="300" width="40" height="30" as="geometry" />
        </mxCell>
        <mxCell id="rzqhY-2N-wOMWiYD81K0-30" value="" style="endArrow=block;startArrow=block;endFill=1;startFill=1;html=1;rounded=0;entryX=0;entryY=0.5;entryDx=0;entryDy=0;exitX=1;exitY=0.5;exitDx=0;exitDy=0;" parent="1" source="rzqhY-2N-wOMWiYD81K0-2" target="rzqhY-2N-wOMWiYD81K0-1" edge="1">
          <mxGeometry width="160" relative="1" as="geometry">
            <mxPoint x="210" y="460" as="sourcePoint" />
            <mxPoint x="330" y="460" as="targetPoint" />
          </mxGeometry>
        </mxCell>
        <mxCell id="rzqhY-2N-wOMWiYD81K0-31" value="0..*" style="text;html=1;align=center;verticalAlign=middle;resizable=0;points=[];autosize=1;strokeColor=none;fillColor=none;" parent="1" vertex="1">
          <mxGeometry x="305" y="300" width="40" height="30" as="geometry" />
        </mxCell>
        <mxCell id="rzqhY-2N-wOMWiYD81K0-32" value="0..*" style="text;html=1;align=center;verticalAlign=middle;resizable=0;points=[];autosize=1;strokeColor=none;fillColor=none;" parent="1" vertex="1">
          <mxGeometry x="240" y="300" width="40" height="30" as="geometry" />
        </mxCell>
        <mxCell id="rzqhY-2N-wOMWiYD81K0-33" value="" style="endArrow=block;startArrow=block;endFill=1;startFill=1;html=1;rounded=0;exitX=0.246;exitY=0.026;exitDx=0;exitDy=0;entryX=0.5;entryY=0;entryDx=0;entryDy=0;exitPerimeter=0;" parent="1" source="rzqhY-2N-wOMWiYD81K0-35" target="rzqhY-2N-wOMWiYD81K0-6" edge="1">
          <mxGeometry width="160" relative="1" as="geometry">
            <mxPoint x="320" y="480" as="sourcePoint" />
            <mxPoint x="480" y="480" as="targetPoint" />
            <Array as="points">
              <mxPoint x="380" y="550" />
              <mxPoint x="310" y="550" />
            </Array>
          </mxGeometry>
        </mxCell>
        <mxCell id="rzqhY-2N-wOMWiYD81K0-34" value="1" style="text;html=1;align=center;verticalAlign=middle;resizable=0;points=[];autosize=1;strokeColor=none;fillColor=none;" parent="1" vertex="1">
          <mxGeometry x="310" y="558" width="30" height="30" as="geometry" />
        </mxCell>
        <mxCell id="rzqhY-2N-wOMWiYD81K0-35" value="0..*" style="text;html=1;align=center;verticalAlign=middle;resizable=1;points=[];autosize=1;strokeColor=none;fillColor=none;movable=1;rotatable=1;deletable=1;editable=1;locked=0;connectable=1;" parent="1" vertex="1">
          <mxGeometry x="370" y="360" width="40" height="30" as="geometry" />
        </mxCell>
        <mxCell id="rzqhY-2N-wOMWiYD81K0-36" value="" style="endArrow=diamondThin;endFill=1;endSize=24;html=1;rounded=0;entryX=0.997;entryY=0.572;entryDx=0;entryDy=0;exitX=0.5;exitY=0;exitDx=0;exitDy=0;entryPerimeter=0;" parent="1" target="rzqhY-2N-wOMWiYD81K0-1" edge="1" source="rzqhY-2N-wOMWiYD81K0-4">
          <mxGeometry width="160" relative="1" as="geometry">
            <mxPoint x="510" y="530" as="sourcePoint" />
            <mxPoint x="470" y="340" as="targetPoint" />
            <Array as="points">
              <mxPoint x="670" y="500" />
              <mxPoint x="530" y="500" />
              <mxPoint x="530" y="334" />
            </Array>
          </mxGeometry>
        </mxCell>
        <mxCell id="rzqhY-2N-wOMWiYD81K0-37" value="1" style="text;html=1;align=center;verticalAlign=middle;resizable=0;points=[];autosize=1;strokeColor=none;fillColor=none;" parent="1" vertex="1">
          <mxGeometry x="500" y="330" width="30" height="30" as="geometry" />
        </mxCell>
        <mxCell id="rzqhY-2N-wOMWiYD81K0-38" value="1" style="text;html=1;align=center;verticalAlign=middle;resizable=0;points=[];autosize=1;strokeColor=none;fillColor=none;" parent="1" vertex="1">
          <mxGeometry x="675" y="558" width="30" height="30" as="geometry" />
        </mxCell>
        <mxCell id="rzqhY-2N-wOMWiYD81K0-40" value="" style="endArrow=diamondThin;endFill=1;endSize=24;html=1;rounded=0;exitX=0.5;exitY=0;exitDx=0;exitDy=0;entryX=0;entryY=0.75;entryDx=0;entryDy=0;" parent="1" source="rzqhY-2N-wOMWiYD81K0-5" target="rzqhY-2N-wOMWiYD81K0-1" edge="1">
          <mxGeometry width="160" relative="1" as="geometry">
            <mxPoint x="330" y="470" as="sourcePoint" />
            <mxPoint x="170" y="470" as="targetPoint" />
            <Array as="points">
              <mxPoint x="170" y="470" />
              <mxPoint x="300" y="470" />
              <mxPoint x="300" y="345" />
            </Array>
          </mxGeometry>
        </mxCell>
        <mxCell id="rzqhY-2N-wOMWiYD81K0-41" value="1" style="text;html=1;align=center;verticalAlign=middle;resizable=0;points=[];autosize=1;strokeColor=none;fillColor=none;" parent="1" vertex="1">
          <mxGeometry x="175" y="558" width="30" height="30" as="geometry" />
        </mxCell>
        <mxCell id="rzqhY-2N-wOMWiYD81K0-42" value="1" style="text;html=1;align=center;verticalAlign=middle;resizable=0;points=[];autosize=1;strokeColor=none;fillColor=none;" parent="1" vertex="1">
          <mxGeometry x="320" y="340" width="30" height="30" as="geometry" />
        </mxCell>
        <mxCell id="rzqhY-2N-wOMWiYD81K0-43" value="" style="endArrow=diamondThin;endFill=1;endSize=24;html=1;rounded=0;entryX=0.5;entryY=0;entryDx=0;entryDy=0;exitX=0.5;exitY=0;exitDx=0;exitDy=0;" parent="1" edge="1" source="rzqhY-2N-wOMWiYD81K0-9">
          <mxGeometry width="160" relative="1" as="geometry">
            <mxPoint x="670" y="600" as="sourcePoint" />
            <mxPoint x="470" y="350" as="targetPoint" />
            <Array as="points">
              <mxPoint x="590" y="550" />
              <mxPoint x="500" y="550" />
              <mxPoint x="500" y="350" />
            </Array>
          </mxGeometry>
        </mxCell>
        <mxCell id="rzqhY-2N-wOMWiYD81K0-44" value="1" style="text;html=1;align=center;verticalAlign=middle;resizable=0;points=[];autosize=1;strokeColor=none;fillColor=none;" parent="1" vertex="1">
          <mxGeometry x="470" y="350" width="30" height="30" as="geometry" />
        </mxCell>
        <mxCell id="rzqhY-2N-wOMWiYD81K0-45" value="1" style="text;html=1;align=center;verticalAlign=middle;resizable=0;points=[];autosize=1;strokeColor=none;fillColor=none;" parent="1" vertex="1">
          <mxGeometry x="560" y="660" width="30" height="30" as="geometry" />
        </mxCell>
        <mxCell id="rzqhY-2N-wOMWiYD81K0-46" value="" style="endArrow=block;startArrow=block;endFill=1;startFill=1;html=1;rounded=0;exitX=0.5;exitY=1;exitDx=0;exitDy=0;entryX=0.5;entryY=0;entryDx=0;entryDy=0;" parent="1" source="rzqhY-2N-wOMWiYD81K0-6" target="rzqhY-2N-wOMWiYD81K0-7" edge="1">
          <mxGeometry width="160" relative="1" as="geometry">
            <mxPoint x="240" y="674.69" as="sourcePoint" />
            <mxPoint x="400" y="674.69" as="targetPoint" />
          </mxGeometry>
        </mxCell>
        <mxCell id="rzqhY-2N-wOMWiYD81K0-47" value="" style="endArrow=diamondThin;endFill=0;endSize=24;html=1;rounded=0;entryX=0.963;entryY=-0.005;entryDx=0;entryDy=0;exitX=1;exitY=0.5;exitDx=0;exitDy=0;entryPerimeter=0;" parent="1" source="rzqhY-2N-wOMWiYD81K0-7" target="rzqhY-2N-wOMWiYD81K0-35" edge="1">
          <mxGeometry width="160" relative="1" as="geometry">
            <mxPoint x="420" y="730" as="sourcePoint" />
            <mxPoint x="417" y="360" as="targetPoint" />
            <Array as="points">
              <mxPoint x="410" y="720" />
            </Array>
          </mxGeometry>
        </mxCell>
        <mxCell id="rzqhY-2N-wOMWiYD81K0-49" value="" style="endArrow=diamondThin;endFill=0;endSize=24;html=1;rounded=0;entryX=0.741;entryY=0.998;entryDx=0;entryDy=0;exitX=0.5;exitY=0;exitDx=0;exitDy=0;entryPerimeter=0;" parent="1" source="rzqhY-2N-wOMWiYD81K0-8" target="rzqhY-2N-wOMWiYD81K0-1" edge="1">
          <mxGeometry width="160" relative="1" as="geometry">
            <mxPoint x="380" y="730" as="sourcePoint" />
            <mxPoint x="415" y="369" as="targetPoint" />
            <Array as="points">
              <mxPoint x="440" y="750" />
            </Array>
          </mxGeometry>
        </mxCell>
        <mxCell id="rzqhY-2N-wOMWiYD81K0-50" value="" style="endArrow=diamondThin;endFill=1;endSize=24;html=1;rounded=0;entryX=0.877;entryY=1.004;entryDx=0;entryDy=0;entryPerimeter=0;" parent="1" source="rzqhY-2N-wOMWiYD81K0-10" target="rzqhY-2N-wOMWiYD81K0-1" edge="1">
          <mxGeometry width="160" relative="1" as="geometry">
            <mxPoint x="590" y="780" as="sourcePoint" />
            <mxPoint x="470" y="560" as="targetPoint" />
            <Array as="points">
              <mxPoint x="550" y="780" />
              <mxPoint x="460" y="780" />
            </Array>
          </mxGeometry>
        </mxCell>
        <mxCell id="rzqhY-2N-wOMWiYD81K0-51" value="" style="endArrow=diamondThin;endFill=0;endSize=24;html=1;rounded=0;entryX=0.625;entryY=1;entryDx=0;entryDy=0;exitX=1.02;exitY=0.521;exitDx=0;exitDy=0;exitPerimeter=0;entryPerimeter=0;" parent="1" source="rzqhY-2N-wOMWiYD81K0-11" target="rzqhY-2N-wOMWiYD81K0-1" edge="1">
          <mxGeometry width="160" relative="1" as="geometry">
            <mxPoint x="426" y="920" as="sourcePoint" />
            <mxPoint x="425" y="370" as="targetPoint" />
            <Array as="points">
              <mxPoint x="426" y="831" />
            </Array>
          </mxGeometry>
        </mxCell>
        <mxCell id="rzqhY-2N-wOMWiYD81K0-52" value="&lt;span style=&quot;font-size: 16px;&quot;&gt;Instructor ID&lt;/span&gt;" style="rounded=0;whiteSpace=wrap;html=1;fillColor=#f8cecc;strokeColor=#b85450;" parent="1" vertex="1">
          <mxGeometry x="870" y="300" width="120" height="60" as="geometry" />
        </mxCell>
        <mxCell id="rzqhY-2N-wOMWiYD81K0-53" value="&lt;font style=&quot;font-size: 16px;&quot;&gt;User ID&lt;/font&gt;" style="rounded=0;whiteSpace=wrap;html=1;fillColor=#f8cecc;strokeColor=#b85450;" parent="1" vertex="1">
          <mxGeometry x="-140" y="300" width="120" height="60" as="geometry" />
        </mxCell>
        <mxCell id="rzqhY-2N-wOMWiYD81K0-54" value="&lt;font style=&quot;font-size: 16px;&quot;&gt;Course ID&lt;/font&gt;" style="rounded=0;whiteSpace=wrap;html=1;fillColor=#f8cecc;strokeColor=#b85450;" parent="1" vertex="1">
          <mxGeometry x="350" y="160" width="120" height="60" as="geometry" />
        </mxCell>
        <mxCell id="1fXAo_D1PVDdWuw8LJbz-2" value="" style="endArrow=diamondThin;endFill=1;endSize=24;html=1;rounded=0;exitX=1;exitY=0.5;exitDx=0;exitDy=0;entryX=0;entryY=0.5;entryDx=0;entryDy=0;" edge="1" parent="1">
          <mxGeometry width="160" relative="1" as="geometry">
            <mxPoint x="-20" y="349" as="sourcePoint" />
            <mxPoint x="120" y="349" as="targetPoint" />
          </mxGeometry>
        </mxCell>
        <mxCell id="1fXAo_D1PVDdWuw8LJbz-4" value="" style="endArrow=diamondThin;endFill=1;endSize=24;html=1;rounded=0;exitX=0.5;exitY=1;exitDx=0;exitDy=0;entryX=0.5;entryY=0;entryDx=0;entryDy=0;" edge="1" parent="1">
          <mxGeometry width="160" relative="1" as="geometry">
            <mxPoint x="409" y="220" as="sourcePoint" />
            <mxPoint x="409" y="300" as="targetPoint" />
          </mxGeometry>
        </mxCell>
        <mxCell id="1fXAo_D1PVDdWuw8LJbz-5" value="" style="endArrow=diamondThin;endFill=1;endSize=24;html=1;rounded=0;exitX=0;exitY=0.5;exitDx=0;exitDy=0;entryX=1;entryY=0.5;entryDx=0;entryDy=0;exitPerimeter=0;" edge="1" parent="1">
          <mxGeometry width="160" relative="1" as="geometry">
            <mxPoint x="870" y="348.82" as="sourcePoint" />
            <mxPoint x="710" y="348.82" as="targetPoint" />
          </mxGeometry>
        </mxCell>
        <mxCell id="1fXAo_D1PVDdWuw8LJbz-6" value="" style="endArrow=diamondThin;endFill=0;endSize=24;html=1;rounded=0;entryX=0;entryY=0.5;entryDx=0;entryDy=0;" edge="1" parent="1" target="rzqhY-2N-wOMWiYD81K0-2">
          <mxGeometry width="160" relative="1" as="geometry">
            <mxPoint y="239.5" as="sourcePoint" />
            <mxPoint x="160" y="239.5" as="targetPoint" />
            <Array as="points">
              <mxPoint x="40" y="240" />
              <mxPoint x="40" y="330" />
            </Array>
          </mxGeometry>
        </mxCell>
        <mxCell id="1fXAo_D1PVDdWuw8LJbz-8" value="" style="endArrow=diamondThin;endFill=1;endSize=24;html=1;rounded=0;entryX=-0.003;entryY=0.157;entryDx=0;entryDy=0;entryPerimeter=0;" edge="1" parent="1" target="rzqhY-2N-wOMWiYD81K0-2">
          <mxGeometry width="160" relative="1" as="geometry">
            <mxPoint x="-10" y="159" as="sourcePoint" />
            <mxPoint x="150" y="159" as="targetPoint" />
            <Array as="points">
              <mxPoint x="50" y="160" />
              <mxPoint x="50" y="310" />
            </Array>
          </mxGeometry>
        </mxCell>
        <mxCell id="1fXAo_D1PVDdWuw8LJbz-10" value="" style="endArrow=diamondThin;endFill=0;endSize=24;html=1;rounded=0;entryX=0.168;entryY=-0.021;entryDx=0;entryDy=0;entryPerimeter=0;exitX=1;exitY=0.5;exitDx=0;exitDy=0;" edge="1" parent="1" source="rzqhY-2N-wOMWiYD81K0-13" target="rzqhY-2N-wOMWiYD81K0-2">
          <mxGeometry width="160" relative="1" as="geometry">
            <mxPoint x="-10" y="140" as="sourcePoint" />
            <mxPoint x="150" y="140" as="targetPoint" />
            <Array as="points">
              <mxPoint x="60" y="60" />
              <mxPoint x="60" y="270" />
              <mxPoint x="140" y="270" />
            </Array>
          </mxGeometry>
        </mxCell>
        <mxCell id="1fXAo_D1PVDdWuw8LJbz-11" value="" style="endArrow=diamondThin;endFill=1;endSize=24;html=1;rounded=0;entryX=0.354;entryY=-0.012;entryDx=0;entryDy=0;entryPerimeter=0;" edge="1" parent="1" target="rzqhY-2N-wOMWiYD81K0-2">
          <mxGeometry width="160" relative="1" as="geometry">
            <mxPoint x="140" y="120" as="sourcePoint" />
            <mxPoint x="300" y="120" as="targetPoint" />
            <Array as="points">
              <mxPoint x="140" y="150" />
              <mxPoint x="160" y="150" />
            </Array>
          </mxGeometry>
        </mxCell>
        <mxCell id="1fXAo_D1PVDdWuw8LJbz-12" value="" style="endArrow=diamondThin;endFill=1;endSize=24;html=1;rounded=0;exitX=0.5;exitY=1;exitDx=0;exitDy=0;entryX=0.667;entryY=0.033;entryDx=0;entryDy=0;entryPerimeter=0;" edge="1" parent="1" source="rzqhY-2N-wOMWiYD81K0-15" target="rzqhY-2N-wOMWiYD81K0-2">
          <mxGeometry width="160" relative="1" as="geometry">
            <mxPoint x="220" y="260" as="sourcePoint" />
            <mxPoint x="380" y="260" as="targetPoint" />
            <Array as="points">
              <mxPoint x="245" y="260" />
              <mxPoint x="200" y="260" />
            </Array>
          </mxGeometry>
        </mxCell>
        <mxCell id="1fXAo_D1PVDdWuw8LJbz-13" value="" style="endArrow=diamondThin;endFill=1;endSize=24;html=1;rounded=0;entryX=0.25;entryY=0;entryDx=0;entryDy=0;" edge="1" parent="1" target="rzqhY-2N-wOMWiYD81K0-3">
          <mxGeometry width="160" relative="1" as="geometry">
            <mxPoint x="590" y="230" as="sourcePoint" />
            <mxPoint x="545" y="300" as="targetPoint" />
            <Array as="points">
              <mxPoint x="590" y="258" />
              <mxPoint x="620" y="258" />
            </Array>
          </mxGeometry>
        </mxCell>
        <mxCell id="1fXAo_D1PVDdWuw8LJbz-14" value="" style="endArrow=diamondThin;endFill=0;endSize=24;html=1;rounded=0;exitX=0;exitY=0.5;exitDx=0;exitDy=0;entryX=1;entryY=0.25;entryDx=0;entryDy=0;" edge="1" parent="1">
          <mxGeometry width="160" relative="1" as="geometry">
            <mxPoint x="870" y="255" as="sourcePoint" />
            <mxPoint x="710" y="330" as="targetPoint" />
            <Array as="points">
              <mxPoint x="830" y="255" />
              <mxPoint x="830" y="330" />
            </Array>
          </mxGeometry>
        </mxCell>
        <mxCell id="1fXAo_D1PVDdWuw8LJbz-15" value="" style="endArrow=diamondThin;endFill=1;endSize=24;html=1;rounded=0;exitX=0;exitY=0.5;exitDx=0;exitDy=0;entryX=1;entryY=0.25;entryDx=0;entryDy=0;" edge="1" parent="1" source="rzqhY-2N-wOMWiYD81K0-21" target="rzqhY-2N-wOMWiYD81K0-3">
          <mxGeometry width="160" relative="1" as="geometry">
            <mxPoint x="650" y="230" as="sourcePoint" />
            <mxPoint x="810" y="230" as="targetPoint" />
            <Array as="points">
              <mxPoint x="820" y="160" />
              <mxPoint x="820" y="315" />
            </Array>
          </mxGeometry>
        </mxCell>
        <mxCell id="1fXAo_D1PVDdWuw8LJbz-16" value="" style="endArrow=diamondThin;endFill=0;endSize=24;html=1;rounded=0;exitX=0.5;exitY=1;exitDx=0;exitDy=0;entryX=0.388;entryY=0.006;entryDx=0;entryDy=0;entryPerimeter=0;" edge="1" parent="1" source="rzqhY-2N-wOMWiYD81K0-17" target="rzqhY-2N-wOMWiYD81K0-3">
          <mxGeometry width="160" relative="1" as="geometry">
            <mxPoint x="650" y="230" as="sourcePoint" />
            <mxPoint x="810" y="230" as="targetPoint" />
            <Array as="points">
              <mxPoint x="715" y="150" />
              <mxPoint x="660" y="150" />
              <mxPoint x="660" y="260" />
              <mxPoint x="637" y="260" />
            </Array>
          </mxGeometry>
        </mxCell>
        <mxCell id="1fXAo_D1PVDdWuw8LJbz-17" value="" style="endArrow=diamondThin;endFill=0;endSize=24;html=1;rounded=0;exitX=0.37;exitY=1.006;exitDx=0;exitDy=0;entryX=0.388;entryY=0.006;entryDx=0;entryDy=0;entryPerimeter=0;exitPerimeter=0;" edge="1" parent="1" source="rzqhY-2N-wOMWiYD81K0-22">
          <mxGeometry width="160" relative="1" as="geometry">
            <mxPoint x="748" y="120" as="sourcePoint" />
            <mxPoint x="670" y="300" as="targetPoint" />
            <Array as="points">
              <mxPoint x="800" y="130" />
              <mxPoint x="800" y="160" />
              <mxPoint x="693" y="160" />
              <mxPoint x="693" y="260" />
              <mxPoint x="670" y="260" />
            </Array>
          </mxGeometry>
        </mxCell>
        <mxCell id="1fXAo_D1PVDdWuw8LJbz-18" value="" style="endArrow=diamondThin;endFill=0;endSize=24;html=1;rounded=0;exitX=0;exitY=0.25;exitDx=0;exitDy=0;entryX=0.834;entryY=-0.002;entryDx=0;entryDy=0;entryPerimeter=0;" edge="1" parent="1" target="rzqhY-2N-wOMWiYD81K0-3">
          <mxGeometry width="160" relative="1" as="geometry">
            <mxPoint x="860" y="42.72" as="sourcePoint" />
            <mxPoint x="684.1999999999998" y="300" as="targetPoint" />
            <Array as="points">
              <mxPoint x="810" y="42.72" />
              <mxPoint x="810" y="197.72" />
              <mxPoint x="710" y="197.72" />
              <mxPoint x="710" y="270" />
              <mxPoint x="690" y="270" />
            </Array>
          </mxGeometry>
        </mxCell>
        <mxCell id="1fXAo_D1PVDdWuw8LJbz-19" value="1" style="text;html=1;align=center;verticalAlign=middle;resizable=0;points=[];autosize=1;strokeColor=none;fillColor=none;" vertex="1" parent="1">
          <mxGeometry x="85" y="348" width="30" height="30" as="geometry" />
        </mxCell>
        <mxCell id="1fXAo_D1PVDdWuw8LJbz-20" value="1" style="text;html=1;align=center;verticalAlign=middle;resizable=0;points=[];autosize=1;strokeColor=none;fillColor=none;" vertex="1" parent="1">
          <mxGeometry x="-20" y="348" width="30" height="30" as="geometry" />
        </mxCell>
        <mxCell id="1fXAo_D1PVDdWuw8LJbz-21" value="1..*" style="text;html=1;align=center;verticalAlign=middle;resizable=0;points=[];autosize=1;strokeColor=none;fillColor=none;" vertex="1" parent="1">
          <mxGeometry x="-10" y="240" width="40" height="30" as="geometry" />
        </mxCell>
        <mxCell id="1fXAo_D1PVDdWuw8LJbz-22" value="1" style="text;html=1;align=center;verticalAlign=middle;resizable=0;points=[];autosize=1;strokeColor=none;fillColor=none;" vertex="1" parent="1">
          <mxGeometry x="-10" y="160" width="30" height="30" as="geometry" />
        </mxCell>
        <mxCell id="1fXAo_D1PVDdWuw8LJbz-23" value="1" style="text;html=1;align=center;verticalAlign=middle;resizable=0;points=[];autosize=1;strokeColor=none;fillColor=none;" vertex="1" parent="1">
          <mxGeometry y="60" width="30" height="30" as="geometry" />
        </mxCell>
        <mxCell id="1fXAo_D1PVDdWuw8LJbz-24" value="1" style="text;html=1;align=center;verticalAlign=middle;resizable=0;points=[];autosize=1;strokeColor=none;fillColor=none;" vertex="1" parent="1">
          <mxGeometry x="105" y="118" width="30" height="30" as="geometry" />
        </mxCell>
        <mxCell id="1fXAo_D1PVDdWuw8LJbz-25" value="1" style="text;html=1;align=center;verticalAlign=middle;resizable=0;points=[];autosize=1;strokeColor=none;fillColor=none;" vertex="1" parent="1">
          <mxGeometry x="245" y="225" width="30" height="30" as="geometry" />
        </mxCell>
        <mxCell id="1fXAo_D1PVDdWuw8LJbz-26" value="1" style="text;html=1;align=center;verticalAlign=middle;resizable=0;points=[];autosize=1;strokeColor=none;fillColor=none;" vertex="1" parent="1">
          <mxGeometry x="410" y="220" width="30" height="30" as="geometry" />
        </mxCell>
        <mxCell id="1fXAo_D1PVDdWuw8LJbz-27" value="1" style="text;html=1;align=center;verticalAlign=middle;resizable=0;points=[];autosize=1;strokeColor=none;fillColor=none;" vertex="1" parent="1">
          <mxGeometry x="410" y="270" width="30" height="30" as="geometry" />
        </mxCell>
        <mxCell id="1fXAo_D1PVDdWuw8LJbz-28" value="1" style="text;html=1;align=center;verticalAlign=middle;resizable=0;points=[];autosize=1;strokeColor=none;fillColor=none;" vertex="1" parent="1">
          <mxGeometry x="560" y="225" width="30" height="30" as="geometry" />
        </mxCell>
        <mxCell id="1fXAo_D1PVDdWuw8LJbz-29" value="1" style="text;html=1;align=center;verticalAlign=middle;resizable=0;points=[];autosize=1;strokeColor=none;fillColor=none;" vertex="1" parent="1">
          <mxGeometry x="710" y="360" width="30" height="30" as="geometry" />
        </mxCell>
        <mxCell id="1fXAo_D1PVDdWuw8LJbz-30" value="1" style="text;html=1;align=center;verticalAlign=middle;resizable=0;points=[];autosize=1;strokeColor=none;fillColor=none;" vertex="1" parent="1">
          <mxGeometry x="720" y="118" width="30" height="30" as="geometry" />
        </mxCell>
        <mxCell id="1fXAo_D1PVDdWuw8LJbz-31" value="1" style="text;html=1;align=center;verticalAlign=middle;resizable=0;points=[];autosize=1;strokeColor=none;fillColor=none;" vertex="1" parent="1">
          <mxGeometry x="775" width="30" height="30" as="geometry" />
        </mxCell>
        <mxCell id="1fXAo_D1PVDdWuw8LJbz-32" value="1" style="text;html=1;align=center;verticalAlign=middle;resizable=0;points=[];autosize=1;strokeColor=none;fillColor=none;" vertex="1" parent="1">
          <mxGeometry x="830" y="45" width="30" height="30" as="geometry" />
        </mxCell>
        <mxCell id="1fXAo_D1PVDdWuw8LJbz-33" value="1" style="text;html=1;align=center;verticalAlign=middle;resizable=0;points=[];autosize=1;strokeColor=none;fillColor=none;" vertex="1" parent="1">
          <mxGeometry x="850" y="158" width="30" height="30" as="geometry" />
        </mxCell>
        <mxCell id="1fXAo_D1PVDdWuw8LJbz-34" value="1" style="text;html=1;align=center;verticalAlign=middle;resizable=0;points=[];autosize=1;strokeColor=none;fillColor=none;" vertex="1" parent="1">
          <mxGeometry x="840" y="225" width="30" height="30" as="geometry" />
        </mxCell>
        <mxCell id="1fXAo_D1PVDdWuw8LJbz-35" value="1" style="text;html=1;align=center;verticalAlign=middle;resizable=0;points=[];autosize=1;strokeColor=none;fillColor=none;" vertex="1" parent="1">
          <mxGeometry x="840" y="320" width="30" height="30" as="geometry" />
        </mxCell>
        <mxCell id="1fXAo_D1PVDdWuw8LJbz-36" value="1" style="text;html=1;align=center;verticalAlign=middle;resizable=0;points=[];autosize=1;strokeColor=none;fillColor=none;" vertex="1" parent="1">
          <mxGeometry x="310" y="650" width="30" height="30" as="geometry" />
        </mxCell>
        <mxCell id="1fXAo_D1PVDdWuw8LJbz-37" value="0..*" style="text;html=1;align=center;verticalAlign=middle;resizable=0;points=[];autosize=1;strokeColor=none;fillColor=none;" vertex="1" parent="1">
          <mxGeometry x="310" y="668" width="40" height="30" as="geometry" />
        </mxCell>
        <mxCell id="1fXAo_D1PVDdWuw8LJbz-41" value="1" style="text;html=1;align=center;verticalAlign=middle;resizable=0;points=[];autosize=1;strokeColor=none;fillColor=none;" vertex="1" parent="1">
          <mxGeometry x="285" y="838" width="30" height="30" as="geometry" />
        </mxCell>
        <mxCell id="1fXAo_D1PVDdWuw8LJbz-42" value="1" style="text;html=1;align=center;verticalAlign=middle;resizable=0;points=[];autosize=1;strokeColor=none;fillColor=none;" vertex="1" parent="1">
          <mxGeometry x="405" y="878" width="30" height="30" as="geometry" />
        </mxCell>
        <mxCell id="1fXAo_D1PVDdWuw8LJbz-43" value="1" style="text;html=1;align=center;verticalAlign=middle;resizable=0;points=[];autosize=1;strokeColor=none;fillColor=none;" vertex="1" parent="1">
          <mxGeometry x="560" y="790" width="30" height="30" as="geometry" />
        </mxCell>
      </root>
    </mxGraphModel>
  </diagram>
</mxfile>
